# xmcd
#
# Track frame offsets:
#	150
#	29333
#	55892
#	78802
#	100075
#	120142
#	138614
#	152645
#	176766
#	196594
#
# Disc length: 2948 seconds
# Revision: 0
# Processed by: cddbd v1.5.2PL0 Copyright (c) Steve Scherf et al.
# Submitted via: dBpowerAMP V12.0
#
DISCID=720b820a
DTITLE=Blue Eyes Cry - Pull Me In
DYEAR=2015
DGENRE=Blues
TTITLE0=Pull Me In
TTITLE1=Me And My Man
TTITLE2=Outta Luck
TTITLE3=Day To Night
TTITLE4=Leaving Trunk
TTITLE5=Hey Baby
TTITLE6=Under Your skin
TTITLE7=Alone
TTITLE8=Turn Around
TTITLE9=Sugar
EXTD=
EXTT0=
EXTT1=
EXTT2=
EXTT3=
EXTT4=
EXTT5=
EXTT6=
EXTT7=
EXTT8=
EXTT9=
PLAYORDER=
